<?xml version="1.0" encoding="UTF-8" standalone="no"?>
<!-- Created with Inkscape (http://www.inkscape.org/) -->

<svg
   version="1.1"
   id="svg2"
   width="205.62122"
   height="183.7066"
   viewBox="0 0 205.62122 183.7066"
   sodipodi:docname="Captura de pantalla 2024-05-09 103814.png"
   xmlns:inkscape="http://www.inkscape.org/namespaces/inkscape"
   xmlns:sodipodi="http://sodipodi.sourceforge.net/DTD/sodipodi-0.dtd"
   xmlns="http://www.w3.org/2000/svg"
   xmlns:svg="http://www.w3.org/2000/svg">
  <defs
     id="defs6" />
  <sodipodi:namedview
     id="namedview4"
     pagecolor="#ffffff"
     bordercolor="#000000"
     borderopacity="0.25"
     inkscape:showpageshadow="2"
     inkscape:pageopacity="0.0"
     inkscape:pagecheckerboard="0"
     inkscape:deskcolor="#d1d1d1"
     showgrid="false" />
  <g
     id="g6391"
     style="display:inline"
     transform="translate(-1.5288376,-4.0404267)">
    <ellipse
       style="display:inline;fill:#cd9234;fill-opacity:1;fill-rule:evenodd;stroke:#000000;stroke-width:1.422;stroke-linecap:round;stroke-linejoin:round;stroke-dasharray:none;stroke-opacity:1"
       id="path517"
       cx="104.41969"
       cy="71.271439"
       rx="77.078743"
       ry="66.520012" />
    <ellipse
       style="display:inline;fill:#c3252e;fill-opacity:1;fill-rule:evenodd;stroke:none;stroke-width:2.01112;stroke-linecap:round;stroke-linejoin:round;stroke-dasharray:none;stroke-opacity:1"
       id="path8490"
       cx="104.42873"
       cy="63.748344"
       rx="76.024643"
       ry="36.031673" />
    <ellipse
       style="display:inline;fill:#cd9234;fill-opacity:1;fill-rule:evenodd;stroke:#000000;stroke-width:1.422;stroke-linecap:round;stroke-linejoin:round;stroke-dasharray:none;stroke-opacity:1"
       id="path515"
       cx="104.33945"
       cy="110.49904"
       rx="102.09961"
       ry="74.2882" />
    <ellipse
       style="display:inline;fill:#f7c69d;fill-opacity:1;fill-rule:evenodd;stroke:#000000;stroke-width:1.42317;stroke-linecap:round;stroke-linejoin:round;stroke-dasharray:none;stroke-opacity:1"
       id="path511"
       cx="222.95053"
       cy="-29.159994"
       rx="10.710636"
       ry="18.992836"
       transform="matrix(0.6074231,0.79437849,-0.75824693,0.65196748,0,0)" />
    <ellipse
       style="display:inline;fill:#f7c69d;fill-opacity:1;fill-rule:evenodd;stroke:#000000;stroke-width:1.42317;stroke-linecap:round;stroke-linejoin:round;stroke-dasharray:none;stroke-opacity:1"
       id="ellipse513"
       cx="86.205269"
       cy="134.38771"
       rx="10.710636"
       ry="18.992836"
       transform="matrix(-0.6074231,0.79437849,0.75824693,0.65196748,0,0)" />
    <path
       style="display:inline;fill:#f6c69d;fill-opacity:1;fill-rule:evenodd;stroke:#000000;stroke-width:1.422;stroke-linecap:round;stroke-linejoin:round;stroke-dasharray:none;stroke-opacity:1"
       d="m 45.170213,59.729212 117.591877,0.373302 c 0,0 31.67591,125.652116 -57.48936,126.924566 C 17.867837,188.27441 45.170213,59.729212 45.170213,59.729212 Z"
       id="path457"
       sodipodi:nodetypes="ccsc" />
    <ellipse
       style="display:inline;fill:#faf1ec;fill-opacity:1;fill-rule:evenodd;stroke:#000000;stroke-width:1.422;stroke-linecap:round;stroke-linejoin:round;stroke-dasharray:none;stroke-opacity:1"
       id="path7484"
       cx="135.56528"
       cy="131.40425"
       rx="17.927187"
       ry="16.900593" />
    <ellipse
       style="display:inline;fill:#faf1ec;fill-opacity:1;fill-rule:evenodd;stroke:#000000;stroke-width:1.422;stroke-linecap:round;stroke-linejoin:round;stroke-dasharray:none;stroke-opacity:1"
       id="ellipse7486"
       cx="75.565277"
       cy="131.40425"
       rx="17.927187"
       ry="16.900593" />
    <path
       style="display:inline;fill:#111312;fill-opacity:1;fill-rule:evenodd;stroke:#000000;stroke-width:1.422;stroke-linecap:round;stroke-linejoin:round;stroke-dasharray:none;stroke-opacity:1"
       d="m 150.44294,55.249516 c 0,0 9.54524,0.334287 18.66538,11.572534 5.75602,7.09282 12.83257,6.101729 17.91876,5.226306 -5.77368,8.671934 -14.9323,5.599613 -14.9323,5.599613 0,0 12.64876,5.181308 10.45261,16.79884 -1.24385,6.579921 7.28785,12.690961 12.41247,13.812381 -10.27999,3.86126 -14.27901,-2.23985 -14.27901,-2.23985 l 11.01257,26.50484 -13.25241,-13.81238 c 0,0 -1.46762,9.76524 2.89313,22.11847 -6.81421,3.35053 -8.11944,-3.07979 -8.11944,-3.07979 l -3.59309,5.92626 -1.86654,-0.46663 -4.89966,5.17964 -3.8264,-20.71857 -1.86654,3.54643 -9.70599,-43.11703 c 0,0 3.84214,19.57293 -5.50629,24.91828 0.88238,-7.87224 -5.31963,-26.038202 -5.31963,-26.038202 0,0 5.58726,18.069052 -1.21325,23.891692 -3.29795,-14.248648 -18.94536,-44.0503 -18.94536,-44.0503 0,0 8.97347,28.515964 -0.3733,42.18375 -7.93263,-35.980931 -19.411996,-49.276593 -19.411996,-49.276593 0,0 -18.136163,37.530541 -21.27853,53.382983 -6.201134,-17.70394 1.866538,-42.183757 1.866538,-42.183757 0,0 -25.677099,50.268767 -23.611702,64.675527 -5.745652,-2.49554 -4.386364,-26.22485 -4.386364,-26.22485 l -3.359768,32.15111 c 0,0 -9.657851,-2.36666 -11.665861,3.68641 -1.396211,-1.04234 0.09333,-5.2263 0.09333,-5.2263 0,0 -5.939693,6.78813 -10.359285,5.03965 4.608164,-4.51869 5.132979,-8.02611 5.132979,-8.02611 0,0 -4.329276,7.43572 -11.572533,3.73307 4.265762,-6.15908 11.199226,-23.51837 11.199226,-23.51837 0,0 -9.354814,10.24154 -17.172147,7.6528 10.806122,-11.78304 17.172147,-30.424561 17.172147,-30.424561 0,0 -3.549825,9.100331 -18.385397,8.399411 C 27.713026,88.301042 36.95745,75.408124 36.95745,75.408124 c 0,0 -7.702793,-0.476829 -20.158607,3.546421 C 36.6186,54.687473 55.996135,57.116054 55.996135,57.116054 c 0,0 -24.822223,-8.764932 -23.891683,-25.75822 20.345348,14.044357 36.957447,16.425532 36.957447,16.425532 0,0 -19.54866,-12.607486 -18.665378,-30.237911 18.085937,13.119545 27.763095,19.31154 39.757254,19.225338 8.551029,-0.06146 26.038195,6.906189 26.038195,6.906189 0,0 -1.46241,-15.778182 -7.6528,-24.358316 28.16924,8.614566 28.4647,32.94439 28.4647,32.94439 0,0 12.82814,-4.847452 20.15861,-14.932302 2.10719,12.799618 -6.71954,17.918762 -6.71954,17.918762 z"
       id="path353"
       sodipodi:nodetypes="csccsccccccccccccccccccccccccccccccccccccccsccccc" />
    <path
       style="display:inline;fill:#faf1ec;fill-opacity:1;fill-rule:evenodd;stroke:#000000;stroke-width:1.422;stroke-linecap:round;stroke-linejoin:round;stroke-dasharray:none;stroke-opacity:1"
       d="m 64.582205,151.93617 c 0,0 32.944542,13.09062 81.381045,0.37331 -3.20122,20.5174 -19.72706,29.65009 -41.56912,30.15121 -43.271506,0.99277 -39.811925,-30.52452 -39.811925,-30.52452 z"
       id="path357"
       sodipodi:nodetypes="ccsc" />
    <ellipse
       style="fill:#000000;fill-opacity:1;fill-rule:evenodd;stroke:#000000;stroke-width:1;stroke-linecap:round;stroke-linejoin:round;stroke-dasharray:none;stroke-opacity:1"
       id="path8303"
       cx="132.65729"
       cy="129.87241"
       rx="5.543334"
       ry="5.279366" />
    <ellipse
       style="fill:#000000;fill-opacity:1;fill-rule:evenodd;stroke:#000000;stroke-width:1;stroke-linecap:round;stroke-linejoin:round;stroke-dasharray:none;stroke-opacity:1"
       id="ellipse8305"
       cx="76.657288"
       cy="129.87241"
       rx="5.543334"
       ry="5.279366" />
    <path
       style="fill:#000000;fill-opacity:1;fill-rule:evenodd;stroke:#000000;stroke-width:1;stroke-linecap:round;stroke-linejoin:round;stroke-dasharray:none;stroke-opacity:1"
       d="m 68.13728,104.66343 c 0,0 1.922698,1.54592 24.68103,9.89881 0.247164,0.81768 -0.378561,0.66518 -0.378561,0.66518 z"
       id="path8361"
       sodipodi:nodetypes="cccc" />
    <path
       style="fill:#000000;fill-opacity:1;fill-rule:evenodd;stroke:#000000;stroke-width:1;stroke-linecap:round;stroke-linejoin:round;stroke-dasharray:none;stroke-opacity:1"
       d="m 140.81916,104.66343 -24.68103,9.89881 0.29696,0.46195 z"
       id="path8363"
       sodipodi:nodetypes="cccc" />
    <path
       style="fill:#000000;fill-opacity:1;fill-rule:evenodd;stroke:none;stroke-width:1.422;stroke-linecap:round;stroke-linejoin:round;stroke-dasharray:none;stroke-opacity:1"
       d="m 65.596122,159.0409 26.066869,6.46722 -26.132862,-5.41135 z"
       id="path11965" />
    <path
       style="fill:#000000;fill-opacity:1;fill-rule:evenodd;stroke:none;stroke-width:1.422;stroke-linecap:round;stroke-linejoin:round;stroke-dasharray:none;stroke-opacity:1"
       d="m 144.09671,157.90909 -22.39845,5.59961 22.49178,-4.85299 z"
       id="path11967" />
    <path
       style="fill:#000000;fill-opacity:1;fill-rule:evenodd;stroke:none;stroke-width:1.422;stroke-linecap:round;stroke-linejoin:round;stroke-dasharray:none;stroke-opacity:1"
       d="m 162.01547,149.78965 c 0,0 4.853,-3.8264 5.03966,-0.37331 0.18665,3.4531 -1.3066,6.43956 -1.3066,6.43956 0,0 2.51983,-8.11944 0.83994,-7.55948 -1.67988,0.55996 -4.57302,1.49323 -4.57302,1.49323 z"
       id="path11969"
       sodipodi:nodetypes="cscscc" />
    <path
       style="fill:#000000;fill-opacity:1;fill-rule:evenodd;stroke:none;stroke-width:1.1374;stroke-linecap:round;stroke-linejoin:round;stroke-dasharray:none;stroke-opacity:1"
       d="m 155.83755,159.59148 c 0,0 -2.08897,4.8883 0.35525,4.51976 2.44424,-0.36857 4.35557,-2.15234 4.35557,-2.15234 0,0 -5.38499,3.48621 -5.19801,1.91229 0.18698,-1.57391 0.48719,-4.27972 0.48719,-4.27972 z"
       id="path11971"
       sodipodi:nodetypes="cscscc" />
    <path
       style="fill:#000000;fill-opacity:1;fill-rule:evenodd;stroke:none;stroke-width:1.422;stroke-linecap:round;stroke-linejoin:round;stroke-dasharray:none;stroke-opacity:1"
       d="m 48.156523,149.78965 c 0,0 -4.853,-3.8264 -5.03966,-0.37331 -0.18665,3.4531 1.3066,6.43956 1.3066,6.43956 0,0 -2.51983,-8.11944 -0.83994,-7.55948 1.67988,0.55996 4.57302,1.49323 4.57302,1.49323 z"
       id="path11973"
       sodipodi:nodetypes="cscscc" />
    <path
       style="fill:#000000;fill-opacity:1;fill-rule:evenodd;stroke:none;stroke-width:1.1374;stroke-linecap:round;stroke-linejoin:round;stroke-dasharray:none;stroke-opacity:1"
       d="m 54.334443,159.59148 c 0,0 2.08897,4.8883 -0.35525,4.51976 -2.44424,-0.36857 -4.35557,-2.15234 -4.35557,-2.15234 0,0 5.38499,3.48621 5.19801,1.91229 -0.18698,-1.57391 -0.48719,-4.27972 -0.48719,-4.27972 z"
       id="path11975"
       sodipodi:nodetypes="cscscc" />
    <path
       style="fill:#000000;fill-opacity:1;fill-rule:evenodd;stroke:none;stroke-width:1.422;stroke-linecap:round;stroke-linejoin:round;stroke-dasharray:none;stroke-opacity:1"
       d="m 112.97843,9.7668269 c 22.30532,3.9265291 0.13198,0.9238891 0.13198,0.9238891 z"
       id="path12703"
       sodipodi:nodetypes="ccc" />
    <path
       style="fill:#000000;fill-opacity:1;fill-rule:evenodd;stroke:none;stroke-width:1.422;stroke-linecap:round;stroke-linejoin:round;stroke-dasharray:none;stroke-opacity:1"
       d="m 134.75581,13.99032 c 17.53567,2.716737 32.86406,23.625162 32.86406,23.625162 0,0 -19.58759,-21.618338 -33.14266,-23.269241 -0.0737,-0.433731 -0.15627,-0.289303 0.2786,-0.355921 z"
       id="path12705"
       sodipodi:nodetypes="cccc" />
    <path
       style="fill:#000000;fill-opacity:1;fill-rule:evenodd;stroke:#000000;stroke-width:1;stroke-linecap:round;stroke-linejoin:round;stroke-dasharray:none;stroke-opacity:1"
       d="m 105.98066,140.36364 c 0,0 -6.09118,0.79495 -6.858155,4.20634 -0.888088,3.9501 2.751765,6.15294 2.751765,6.15294 0,0 -3.438273,-1.90473 -2.825763,-6.13693 0.456578,-3.15476 6.932153,-4.22235 6.932153,-4.22235 z"
       id="path8436"
       sodipodi:nodetypes="cscsc" />
  </g>
</svg>
